<svg xmlns:xlink="http://www.w3.org/1999/xlink" height="400" width="800" version="1.1" xmlns="http://www.w3.org/2000/svg"><defs><clipPath id="highcharts-15"><rect stroke-width="0" height="296" width="738" y="0" x="0" fill="none" ry="0" rx="0"></rect></clipPath></defs><rect stroke="#4572A7" stroke-width="0" height="400" width="800" y="0" x="0" fill="#FFFFFF" ry="5" rx="5"></rect><text  class="highcharts-title" text-anchor="middle" style="font-family:'lucida grande', 'lucida sans unicode', verdana, arial, helvetica, sans-serif;font-size:16px;color:#3e576f;fill:#3e576f;" y="25" x="400"><tspan x="400">Overview</tspan></text><g  class="highcharts-grid"></g><g  class="highcharts-grid"><path  stroke-width="1" stroke="#C0C0C0" fill="none" d="M 52 336.5 L 790 336.5"></path><path  stroke-width="1" stroke="#C0C0C0" fill="none" d="M 52 277.5 L 790 277.5"></path><path  stroke-width="1" stroke="#C0C0C0" fill="none" d="M 52 218.5 L 790 218.5"></path><path  stroke-width="1" stroke="#C0C0C0" fill="none" d="M 52 158.5 L 790 158.5"></path><path  stroke-width="1" stroke="#C0C0C0" fill="none" d="M 52 99.5 L 790 99.5"></path><path  stroke-width="1" stroke="#C0C0C0" fill="none" d="M 52 40.5 L 790 40.5"></path></g><g  class="highcharts-series-group"><g transform="translate(52, 40)" visibility="visible" clip-path="url(#highcharts-15)" class="highcharts-series"><path fill-opacity="0.75" fill="rgb(69,114,167)" d="M 369 59.19999999999999 L 369 59.19999999999999 L 369 296 L 369 296"></path><path transform="translate(1, 1)" stroke-opacity="0.05"  stroke-width="5" stroke="rgb(0, 0, 0)" fill="none" d="M 0 0"></path><path transform="translate(1, 1)" stroke-opacity="0.1"  stroke-width="3" stroke="rgb(0, 0, 0)" fill="none" d="M 0 0"></path><path transform="translate(1, 1)" stroke-opacity="0.15000000000000002"  stroke-width="1" stroke="rgb(0, 0, 0)" fill="none" d="M 0 0"></path><path stroke-width="1" stroke="#666666" fill="none" d="M 0 0"></path><circle fill="#4572A7" stroke-width="1" stroke="#666666" r="4" cy="59.19999999999999" cx="369"></circle></g><g transform="translate(52, 40)" visibility="visible" clip-path="url(#highcharts-15)" class="highcharts-series"><path fill-opacity="0.75" fill="rgb(170,70,67)" d="M 369 236.8 L 369 236.8 L 369 296 L 369 296"></path><path transform="translate(1, 1)" stroke-opacity="0.05"  stroke-width="5" stroke="rgb(0, 0, 0)" fill="none" d="M 0 0"></path><path transform="translate(1, 1)" stroke-opacity="0.1"  stroke-width="3" stroke="rgb(0, 0, 0)" fill="none" d="M 0 0"></path><path transform="translate(1, 1)" stroke-opacity="0.15000000000000002"  stroke-width="1" stroke="rgb(0, 0, 0)" fill="none" d="M 0 0"></path><path stroke-width="1" stroke="#666666" fill="none" d="M 0 0"></path><path stroke-width="1" stroke="#666666" fill="#AA4643" d="M 369 233 L 373 237 369 241 365 237 Z"></path></g></g><g transform="translate(324, 360)"  class="highcharts-legend"><rect visibility="visible" stroke="#909090" stroke-width="1" height="24" width="150" y="0.5" x="0.5" fill="none" ry="5" rx="5"></rect><text  style="font-family:'lucida grande', 'lucida sans unicode', verdana, arial, helvetica, sans-serif;font-size:12px;cursor:pointer;color:#3e576f;fill:#3e576f;" y="18" x="30"><tspan x="30">Visits</tspan></text><text  style="font-family:'lucida grande', 'lucida sans unicode', verdana, arial, helvetica, sans-serif;font-size:12px;cursor:pointer;color:#3e576f;fill:#3e576f;" y="18" x="89.484375"><tspan x="89.484375">Visitors</tspan></text><rect r="4" stroke="#666666"  stroke-width="1" height="12" width="16" y="7" x="9" fill="#4572A7" ry="2" rx="2"></rect><rect r="4" stroke="#666666"  stroke-width="1" height="12" width="16" y="7" x="68.484375" fill="#AA4643" ry="2" rx="2"></rect></g><g  class="highcharts-axis"><text text-anchor="middle" style="font-family:'lucida grande', 'lucida sans unicode', verdana, arial, helvetica, sans-serif;font-size:11px;width:718px;color:#666;line-height:14px;fill:#666;" y="350" x="421"><tspan x="421">02nd Dec</tspan></text><path stroke-width="1" stroke="#C0D0E0" fill="none" d="M 421.5 336 L 421.5 341"></path></g><g  class="highcharts-axis"><text text-anchor="end" style="font-family:'lucida grande', 'lucida sans unicode', verdana, arial, helvetica, sans-serif;font-size:11px;width:349px;color:#666;line-height:14px;fill:#666;" y="341.6" x="44"><tspan x="44">0</tspan></text><text text-anchor="end" style="font-family:'lucida grande', 'lucida sans unicode', verdana, arial, helvetica, sans-serif;font-size:11px;width:349px;color:#666;line-height:14px;fill:#666;" y="282.40000000000003" x="44"><tspan x="44">1</tspan></text><text text-anchor="end" style="font-family:'lucida grande', 'lucida sans unicode', verdana, arial, helvetica, sans-serif;font-size:11px;width:349px;color:#666;line-height:14px;fill:#666;" y="223.20000000000002" x="44"><tspan x="44">2</tspan></text><text text-anchor="end" style="font-family:'lucida grande', 'lucida sans unicode', verdana, arial, helvetica, sans-serif;font-size:11px;width:349px;color:#666;line-height:14px;fill:#666;" y="163.99999999999997" x="44"><tspan x="44">3</tspan></text><text text-anchor="end" style="font-family:'lucida grande', 'lucida sans unicode', verdana, arial, helvetica, sans-serif;font-size:11px;width:349px;color:#666;line-height:14px;fill:#666;" y="104.79999999999998" x="44"><tspan x="44">4</tspan></text><text text-anchor="end" style="font-family:'lucida grande', 'lucida sans unicode', verdana, arial, helvetica, sans-serif;font-size:11px;width:349px;color:#666;line-height:14px;fill:#666;" y="45.6" x="44"><tspan x="44">5</tspan></text></g><text text-anchor="middle" transform="rotate(270, 25.0469, 188)"  style="font-family:'lucida grande', 'lucida sans unicode', verdana, arial, helvetica, sans-serif;font-size:12px;color:#6d869f;font-weight:bold;fill:#6d869f;" y="188" x="25.046875"><tspan x="25.046875">Traffic</tspan></text><path  stroke-width="1" stroke="#C0D0E0" fill="none" d="M 52 336.5 L 790 336.5"></path><g visibility="hidden"  class="highcharts-tooltip"><rect transform="translate(1, 1)" stroke-opacity="0.05" stroke="rgb(0, 0, 0)"  fill-opacity="0.85" stroke-width="5" height="0" width="0" y="2" x="2" fill="none" ry="5" rx="5"></rect><rect transform="translate(1, 1)" stroke-opacity="0.1" stroke="rgb(0, 0, 0)"  fill-opacity="0.85" stroke-width="3" height="0" width="0" y="2" x="2" fill="none" ry="5" rx="5"></rect><rect transform="translate(1, 1)" stroke-opacity="0.15000000000000002" stroke="rgb(0, 0, 0)"  fill-opacity="0.85" stroke-width="1" height="0" width="0" y="2" x="2" fill="none" ry="5" rx="5"></rect><rect fill-opacity="0.85" stroke-width="2" height="0" width="0" y="2" x="2" fill="rgb(255,255,255)" ry="5" rx="5"></rect><text  style="font-family:'lucida grande', 'lucida sans unicode', verdana, arial, helvetica, sans-serif;font-size:12px;color:#333333;padding:0;white-space:nowrap;fill:#333333;" y="14" x="2"><tspan x="2"> </tspan></text></g><g transform="translate(52, 40)"  class="highcharts-tracker"><path style=""  visibility="visible" stroke-width="21" stroke="rgb(192,192,192)" stroke-opacity="0.000001"  fill="none" d="M 359 59.19999999999999 L 379 59.19999999999999"></path><path style=""  visibility="visible" stroke-width="21" stroke="rgb(192,192,192)" stroke-opacity="0.000001"  fill="none" d="M 359 236.8 L 379 236.8"></path></g></svg>