<svg xmlns:xlink="http://www.w3.org/1999/xlink" height="400" width="800" version="1.1" xmlns="http://www.w3.org/2000/svg"><defs><clipPath id="highcharts-18"><rect stroke-width="0" height="250" width="670" y="0" x="0" fill="none" ry="0" rx="0"></rect></clipPath></defs><rect stroke="#4572A7" stroke-width="0" height="400" width="800" y="0" x="0" fill="#FFFFFF" ry="5" rx="5"></rect><text  class="highcharts-title" text-anchor="middle" style="font-family:'lucida grande', 'lucida sans unicode', verdana, arial, helvetica, sans-serif;font-size:16px;color:#3e576f;fill:#3e576f;" y="25" x="400"><tspan x="400">Search Terms</tspan></text><g  class="highcharts-grid"></g><g  class="highcharts-grid"></g><g  class="highcharts-series-group"><g transform="translate(80, 50)" visibility="visible" clip-path="url(#highcharts-18)" class="highcharts-series"></g></g><g transform="translate(80, 50)"  visibility="visible" class="highcharts-data-labels"></g><g  class="highcharts-axis"></g><g  class="highcharts-axis"></g><text text-anchor="middle" transform="rotate(270, 70, 175)"  style="font-family:'lucida grande', 'lucida sans unicode', verdana, arial, helvetica, sans-serif;font-size:12px;color:#6d869f;font-weight:bold;fill:#6d869f;" y="175" x="70"><tspan x="70">Traffic</tspan></text><path  stroke-width="1" stroke="#C0D0E0" fill="none" d="M 80 300.5 L 750 300.5"></path><g visibility="hidden"  class="highcharts-tooltip"><rect transform="translate(1, 1)" stroke-opacity="0.05" stroke="rgb(0, 0, 0)"  fill-opacity="0.85" stroke-width="5" height="0" width="0" y="2" x="2" fill="none" ry="5" rx="5"></rect><rect transform="translate(1, 1)" stroke-opacity="0.1" stroke="rgb(0, 0, 0)"  fill-opacity="0.85" stroke-width="3" height="0" width="0" y="2" x="2" fill="none" ry="5" rx="5"></rect><rect transform="translate(1, 1)" stroke-opacity="0.15000000000000002" stroke="rgb(0, 0, 0)"  fill-opacity="0.85" stroke-width="1" height="0" width="0" y="2" x="2" fill="none" ry="5" rx="5"></rect><rect fill-opacity="0.85" stroke-width="2" height="0" width="0" y="2" x="2" fill="rgb(255,255,255)" ry="5" rx="5"></rect><text  style="font-family:'lucida grande', 'lucida sans unicode', verdana, arial, helvetica, sans-serif;font-size:12px;color:#333333;padding:0;white-space:nowrap;fill:#333333;" y="14" x="2"><tspan x="2"> </tspan></text></g><g transform="translate(80, 50)"  class="highcharts-tracker"></g></svg>