<svg xmlns:xlink="http://www.w3.org/1999/xlink" height="400" width="800" version="1.1" xmlns="http://www.w3.org/2000/svg"><defs></defs><rect stroke="#4572A7" stroke-width="0" height="400" width="800" y="0" x="0" fill="#FFFFFF" ry="5" rx="5"></rect><text  class="highcharts-title" text-anchor="middle" style="font-family:'lucida grande', 'lucida sans unicode', verdana, arial, helvetica, sans-serif;font-size:16px;color:#3e576f;fill:#3e576f;" y="25" x="400"><tspan x="400">Visitors</tspan></text><g  class="highcharts-series-group"></g><path transform="translate(10, 40)"  visibility="visible" stroke="#000000" stroke-width="1" fill="none" d="M 384.93829798804455 12.875012000436318 C 389.93829798804455 12.875012000436318 389.9414098310335 20.875011395213363 389.9456886151572 31.875010563031807 L 389.9499673992809 42.87500973085025"></path><path transform="translate(10, 40)"  visibility="visible" stroke="#000000" stroke-width="1" fill="none" d="M 395.04700483727044 330.12499303560355 C 390.04700483727044 330.12499303560355 390.04463422282805 322.1249933868419 390.0413746281319 311.1249938697945 L 390.03811503343576 300.1249943527471"></path><g transform="translate(10, 50)"  class="highcharts-shadow"><path transform="translate(1, 1)" stroke-opacity="0.05"  stroke-linejoin="round" stroke-width="5" stroke="rgb(0, 0, 0)" fill="none" d="M 389.9738025341747 43.37500266786091 A 128.625 128.625 0 1 1 389.9498387742907 43.37500978094718 L 390 172 A 0 0 0 1 0 390 172 Z"></path><path transform="translate(1, 1)" stroke-opacity="0.1"  stroke-linejoin="round" stroke-width="3" stroke="rgb(0, 0, 0)" fill="none" d="M 389.9738025341747 43.37500266786091 A 128.625 128.625 0 1 1 389.9498387742907 43.37500978094718 L 390 172 A 0 0 0 1 0 390 172 Z"></path><path transform="translate(1, 1)" stroke-opacity="0.15000000000000002"  stroke-linejoin="round" stroke-width="1" stroke="rgb(0, 0, 0)" fill="none" d="M 389.9738025341747 43.37500266786091 A 128.625 128.625 0 1 1 389.9498387742907 43.37500978094718 L 390 172 A 0 0 0 1 0 390 172 Z"></path></g><g transform="translate(10, 40)"  class="highcharts-shadow"><path transform="translate(1, 1)" stroke-opacity="0.05"  stroke-linejoin="round" stroke-width="5" stroke="rgb(0, 0, 0)" fill="none" d="M 389.9499673992809 43.37500973085025 A 128.625 128.625 0 0 1 389.9498387742907 43.37500978094718 L 390 172 A 0 0 0 0 0 390 172 Z"></path><path transform="translate(1, 1)" stroke-opacity="0.1"  stroke-linejoin="round" stroke-width="3" stroke="rgb(0, 0, 0)" fill="none" d="M 389.9499673992809 43.37500973085025 A 128.625 128.625 0 0 1 389.9498387742907 43.37500978094718 L 390 172 A 0 0 0 0 0 390 172 Z"></path><path transform="translate(1, 1)" stroke-opacity="0.15000000000000002"  stroke-linejoin="round" stroke-width="1" stroke="rgb(0, 0, 0)" fill="none" d="M 389.9499673992809 43.37500973085025 A 128.625 128.625 0 0 1 389.9498387742907 43.37500978094718 L 390 172 A 0 0 0 0 0 390 172 Z"></path></g><g transform="translate(10, 50)"  class="highcharts-point"><path stroke-linejoin="round" stroke-width="1" stroke="#FFFFFF" fill="#4572A7" d="M 389.9738025341747 43.37500266786091 A 128.625 128.625 0 1 1 389.9498387742907 43.37500978094718 L 390 172 A 0 0 0 1 0 390 172 Z"></path><path style="cursor:pointer;"  visibility="visible" fill-opacity="0.000001"  fill="rgb(192,192,192)" d="M 389.9738025341747 43.37500266786091 A 128.625 128.625 0 1 1 389.9498387742907 43.37500978094718 L 390 172 A 0 0 0 1 0 390 172 Z"></path></g><g transform="translate(10, 40)"  class="highcharts-point"><path stroke-linejoin="round" stroke-width="1" stroke="#FFFFFF" fill="#4572A7" d="M 389.9499673992809 43.37500973085025 A 128.625 128.625 0 0 1 389.9498387742907 43.37500978094718 L 390 172 A 0 0 0 0 0 390 172 Z"></path><path style="cursor:pointer;"  visibility="visible" fill-opacity="0.000001"  fill="rgb(192,192,192)" d="M 389.9499673992809 43.37500973085025 A 128.625 128.625 0 0 1 389.9498387742907 43.37500978094718 L 390 172 A 0 0 0 0 0 390 172 Z"></path></g><g transform="translate(10, 40)"  visibility="visible" class="highcharts-data-labels"><text visibility="visible"  text-anchor="start" style="font-family:'lucida grande', 'lucida sans unicode', verdana, arial, helvetica, sans-serif;font-size:11px;color:#000000;line-height:14px;fill:#000000;" y="335.12499303560355" x="400.04700483727044"><tspan x="400.04700483727044" style="font-weight:bold">5-10 minutes</tspan><tspan dx="3">:</tspan><tspan x="400.04700483727044" dy="14">100.0 %</tspan></text><text visibility="visible"  text-anchor="end" style="font-family:'lucida grande', 'lucida sans unicode', verdana, arial, helvetica, sans-serif;font-size:11px;color:#000000;line-height:14px;fill:#000000;" y="17.875012000436318" x="379.93829798804455"><tspan x="379.93829798804455" style="font-weight:bold">0-1 minutes</tspan><tspan dx="3">:</tspan><tspan x="379.93829798804455" dy="14">0.0 %</tspan></text></g><g  class="highcharts-legend"><rect visibility="hidden" stroke="#909090" stroke-width="1" height="0" width="9" y="0.5" x="0.5" fill="none" ry="5" rx="5"></rect></g><g visibility="hidden"  class="highcharts-tooltip"><rect transform="translate(1, 1)" stroke-opacity="0.05" stroke="rgb(0, 0, 0)"  fill-opacity="0.85" stroke-width="5" height="0" width="0" y="2" x="2" fill="none" ry="5" rx="5"></rect><rect transform="translate(1, 1)" stroke-opacity="0.1" stroke="rgb(0, 0, 0)"  fill-opacity="0.85" stroke-width="3" height="0" width="0" y="2" x="2" fill="none" ry="5" rx="5"></rect><rect transform="translate(1, 1)" stroke-opacity="0.15000000000000002" stroke="rgb(0, 0, 0)"  fill-opacity="0.85" stroke-width="1" height="0" width="0" y="2" x="2" fill="none" ry="5" rx="5"></rect><rect fill-opacity="0.85" stroke-width="2" height="0" width="0" y="2" x="2" fill="rgb(255,255,255)" ry="5" rx="5"></rect><text  style="font-family:'lucida grande', 'lucida sans unicode', verdana, arial, helvetica, sans-serif;font-size:12px;color:#333333;padding:0;white-space:nowrap;fill:#333333;" y="14" x="2"><tspan x="2"> </tspan></text></g><g transform="translate(10, 40)"  class="highcharts-tracker"></g></svg>